<?xml version="1.0" standalone="no"?>
<!DOCTYPE svg PUBLIC "-//W3C//DTD SVG 20010904//EN" "http://www.w3.org/TR/2001/REC-SVG-20010904/DTD/svg10.dtd">
<!-- Created using Krita: https://krita.org -->
<svg xmlns="http://www.w3.org/2000/svg" 
    xmlns:xlink="http://www.w3.org/1999/xlink"
    xmlns:krita="http://krita.org/namespaces/svg/krita"
    xmlns:sodipodi="http://sodipodi.sourceforge.net/DTD/sodipodi-0.dtd"
    width="259.2pt"
    height="259.2pt"
    viewBox="0 0 259.2 259.2">
<defs/>
<path id="shape0" transform="matrix(0.24 0 0 0.24 52.76616 128.83872)" fill="#ffffff" stroke-opacity="0" stroke="#000000" stroke-width="0" stroke-linecap="square" stroke-linejoin="bevel" d="M251.52 372.938L251.52 72.02C286.187 81.8906 310.937 88.9829 325.77 93.297C338.989 97.1417 341.812 113.579 341.81 121.737C341.797 178.381 341.797 272.793 341.81 404.975L306.759 392.537L306.759 138.725L287.451 131.873L287.451 385.685L251.521 372.935L251.521 372.935L251.521 372.938ZM199.457 354.461L199.457 57.102L233.644 66.899L233.644 366.594L199.457 354.461ZM63.531 18.149C50.8616 14.5269 29.747 8.47724 0.187 0L0 283.684L29.609 294.192L29.609 175.516C45.3762 181.157 56.7015 185.176 63.585 187.571C73.5037 191.023 80.0086 181.475 80.013 171.211C80.0382 112.96 80.0533 71.664 80.009 47.375C79.9901 36.999 76.3968 21.8273 63.531 18.149ZM47.571 134.649L29.61 128.278L29.61 56.837L47.571 63.208L47.571 134.65L47.571 134.65ZM164.572 47.1855C153.961 44.1337 136.302 39.147 111.916 32.017C105.433 30.1216 96.9406 36.7809 96.933 48.92C96.8994 102.867 96.8644 192.576 96.828 318.046L130.84 330.116L130.84 208.424L146.465 213.967L146.465 335.659L180.965 347.901C180.963 221.017 180.963 130.305 180.965 75.764C180.965 63.3824 175.687 50.3821 164.572 47.1855ZM146.461 165.367L130.836 159.809L130.836 86.922L146.461 92.469Z" sodipodi:nodetypes="ccssccccccccccccccccccccssssccccccccssccccccssccccc"/><path id="shape01" transform="matrix(0.24 0 0 0.24 52.71864 24.04416)" fill="#ffffff" stroke-opacity="0" stroke="#000000" stroke-width="0" stroke-linecap="square" stroke-linejoin="bevel" d="M322.902 411.973C258.58 395.932 151.407 369.076 1.382 331.407C114.571 306.664 195.42 288.991 243.929 278.387C262.368 248.298 295.725 225.148 336.125 220.752C336.125 209.639 336.125 191.117 336.125 165.186C327.929 159.402 318.242 152.136 318.134 137.043C318.019 121.04 329.108 106.429 348.606 106.472C368.875 106.516 378.469 122.371 378.406 136.69C378.347 150.158 368.297 161.949 360.118 165.357C360.118 191.222 360.118 209.698 360.118 220.783C408.032 225.905 432.907 252.894 449.933 274.75C500.26 285.751 584.137 304.085 701.566 329.754C562.768 365.832 463.678 391.796 404.296 407.645C347.686 422.754 323.17 412.04 322.902 411.973ZM703.851 345.785C555.372 383.833 449.308 410.993 385.66 427.266C368.166 431.739 359.318 450.356 359.365 461.755C359.394 468.707 359.397 479.27 359.373 493.442L519.705 452.704C519.358 539.859 519.113 602.111 518.97 639.459C518.941 647.016 523.368 649.359 528.011 647.864C542.221 643.29 552.295 639.808 558.355 637.802C564.118 635.894 564.336 629.806 564.312 624.877C564.132 588.374 563.871 527.535 563.527 442.361L703.855 404.623L703.855 345.787ZM386.566 471.348C380.49 471.591 377.276 464.848 377.294 456.189C377.319 444.036 381.864 439.982 386.833 439.816C393.026 439.609 395.869 448.548 395.992 456.171C396.116 463.792 391.994 471.131 386.566 471.348ZM438.59 457.821C433.501 457.981 430.484 453.122 429.835 442.147C429.255 432.345 434.266 426.918 438.766 426.761C441.602 426.662 448.406 429.172 448.251 442.558C448.169 449.581 445.342 457.609 438.59 457.821ZM489.344 445.416C485.44 445.507 479.68 441.012 479.402 430.333C479.148 420.555 484.069 415.418 489.337 415.251C493.854 415.108 498.224 421.172 498.352 430.158C498.471 438.572 494.609 445.293 489.344 445.416ZM542.447 401.271C548.482 401.243 551.167 411.743 551.387 417.554C551.761 427.454 546.487 432.434 542.676 432.562C539.776 432.659 533.424 430.3 533.012 418.004C532.66 407.491 537.157 401.296 542.447 401.271ZM542.804 464.027C545.657 464.016 550.491 466.089 551.393 479.112C552.019 488.148 546.338 494.804 542.007 494.888C539.433 494.938 533.105 493.091 532.983 478.734C532.87 465.441 540.123 464.038 542.804 464.027ZM549.269 611.327C546.046 617.882 538.387 619.771 534.259 610.441C531.799 604.881 532.722 596.264 534.569 591.983C537.543 585.088 544.156 582.1 549.432 592.392C552.615 598.602 550.693 608.43 549.269 611.327ZM541.5 554.998C536.944 554.952 533.044 548.865 533.031 537.328C533.021 527.379 540.092 524.109 541.847 524.061C549.579 523.848 550.987 536.246 551.016 538.895C551.181 553.954 544.97 555.033 541.5 554.998ZM586.236 421.961C581.401 422.131 577.341 413.87 577.384 406.496C577.449 395.225 581.963 391.268 586.29 390.842C592.212 390.26 595.124 398.561 595.347 404.928C595.662 413.947 592.486 421.741 586.236 421.961ZM639.136 408.357C631.861 408.739 629.356 395.685 629.402 392.158C629.528 382.508 633.676 376.273 637.897 376.087C643.354 375.846 647.464 384.038 647.394 391.372C647.338 397.185 646.047 407.994 639.136 408.357ZM686.123 394.887C678.368 395.084 677.244 382.891 677.233 379.884C677.221 376.661 678.763 363.63 686.517 363.61C692.229 363.596 696.168 372.662 695.945 379.727C695.679 388.137 691.613 394.748 686.123 394.887ZM500.538 576.874C500.122 547.229 486.553 494.371 445.164 493.953C420.002 493.699 391.889 523.365 391.449 579.564C391.014 635.144 420.649 664.512 442.15 665.305C494.191 667.225 500.795 595.194 500.538 576.874ZM433.073 642.055C407.54 638.079 406.474 590.161 406.127 578.703C405.547 559.509 416.03 526.964 435.455 527.366C452.57 527.719 463.076 552.813 463.403 579.818C463.787 611.568 452.794 645.126 433.073 642.055ZM681.409 527.656C680.422 481.54 659.194 447.026 631.613 446.596C603.852 446.163 578.39 477.691 578.303 525.211C578.208 577.1 603.824 608.663 627.887 608.636C657.678 608.603 682.47 577.236 681.409 527.656ZM646.647 534.5C646.525 552.738 639.267 585.757 618.308 584.798C602.75 584.086 593.78 556.478 594.295 532.163C594.809 507.867 602.923 481.056 620.493 480.632C637.09 480.231 646.831 507.029 646.647 534.5ZM342.397 948.715C190.54 890.941 82.0906 849.674 17.049 824.914C8.7243 821.745 0.00608057 813.8 0.096 797.171C0.167255 783.994 0.162255 761.801 0.081 730.593L342.265 851.675L342.398 948.714M524.663 183.593L395.984 165.491L395.75 166.397L496.555 205.307L501.399 242.057L698.094 292.276L698.336 291.389L531.289 221.596L524.664 183.592L524.664 183.592ZM524.765 108.32L531.293 70.953L697.164 0.844L501.316 50.762L496.57 87.059L395.734 126.145M178.737 108.867L306.678 126.859L306.908 125.777L206.822 87.152L201.986 50.406L4.576 0L4.31 0.754L172.08 70.859L178.736 108.867ZM172.101 221.597L5.113 291.37L5.429 292.245L202.015 242.046L206.796 205.327L307.308 166.514L306.996 165.538L178.703 183.608L172.101 221.596L172.101 221.596ZM507.726 542.172L507.726 467.77L452.699 481.782C452.628 482.148 452.577 482.41 452.547 482.567C481.282 489.486 497.507 512.726 506.847 542.162C507.023 542.164 507.317 542.168 507.727 542.174L507.727 542.174L507.727 542.172ZM575.62 451.234C575.62 463.756 575.62 472.7 575.62 478.066C580.445 470.156 586.954 455.816 600.212 444.609C595.293 445.934 587.096 448.142 575.619 451.234ZM646.296 675.226C642.966 675.913 636.259 677.469 626.175 679.894C626.142 680.217 626.119 680.448 626.105 680.586C640.918 683.912 644.455 694.011 644.589 702.445C644.574 708.624 644.584 718.922 644.515 733.34C644.413 754.849 633.337 761.586 618.472 766.773C618.472 749.889 618.472 721.75 618.472 682.355L604.284 686.831L604.284 772.105L569.847 784.285L569.847 697.566L555.558 702.097L555.558 789.433L520.991 801.652L520.991 712.898L506.679 717.449L506.679 806.788L472.054 819.097L472.054 728.218L457.694 732.765C457.694 775.376 457.694 805.812 457.694 824.074C444.832 828.844 418.235 828.584 417.757 804.175C417.546 793.391 417.334 781.582 417.241 768.746C417.127 753.018 422.52 747.808 428.292 743.277C428.302 742.962 428.309 742.716 428.324 742.226C421.309 743.819 407.64 748.408 407.624 766.246C407.599 795.568 407.473 816.196 407.566 828.683C407.638 838.388 421.917 853.128 438.331 847.203C542.147 809.726 613.559 783.887 656.323 768.324C661.272 766.523 664.83 759.867 664.792 751.882C664.661 724.696 664.386 705.281 664.511 693.633C664.673 678.508 654.931 673.445 646.296 675.226ZM704.133 416.679L635.082 435.151C641.083 436.387 646.805 438.416 652.248 441.241C685.496 458.494 693.22 507.662 693 533.726C692.538 588.555 655.896 621.274 629.535 620.444C613.211 619.93 592.655 611.656 576.329 576.882C576.256 576.727 575.949 576.846 575.407 577.237C575.409 599.838 575.407 615.981 575.403 625.667C575.398 637.035 571.337 644.195 565.983 645.943C546.481 652.31 532.31 656.861 523.831 659.705C519.908 661.021 508.196 655.086 508.154 645.7C508.116 637.252 508.072 627.733 508.021 617.145L507.01 617.129C504.564 624.674 502.714 629.852 501.46 632.662C484.305 671.113 455.019 681.582 433.805 675.273C386.066 661.076 378.956 593.976 379.205 574.997C379.701 537.191 392.107 510.485 417.364 492.013C417.322 491.803 417.253 491.453 417.157 490.962L358.918 505.751L358.918 948.524C501.833 894.334 603.855 855.558 664.985 832.196C694.963 820.739 705.749 811.339 705.617 769.092C705.396 698.548 704.899 581.077 704.125 416.678L704.133 416.678ZM676.534 748.488C676.429 772.864 661.378 780.32 651.485 783.846C610.033 798.62 544.8 821.741 447.035 856.458C424.475 865.726 395.405 854.896 395.359 826.296C395.31 796.114 395.629 774.75 395.616 761.863C395.599 745.187 411.507 734.841 421.986 731.554C465.215 717.995 537.269 695.617 637.959 663.823C663.374 655.798 676.482 677.122 676.582 692.322C676.582 692.322 676.582 692.322 676.582 692.322C676.598 718.533 676.582 737.255 676.534 748.488ZM342.007 457.635L342.007 523.609L0.269 423.219L0 344.684C152.101 384.136 260.59 412.255 325.469 429.042C333.958 431.238 341.851 442.48 342.006 457.636C342.006 457.636 342.006 457.636 342.006 457.636Z" sodipodi:nodetypes="cccccsssccccsscssccsssscccccsssscsssscsssscsssscsssscsssscsssscsssscsssscsssscsssscsssscsssscsssscsscccccccccccccccccccccccccccccccccccccccccccccccccccccccccccsccccccccccccccccssccsssssssccsssscssssccsssccccssccccscssssccsccccsscc"/>
</svg>
